{
  "accessors": [
    {
      "bufferView": 2,
      "componentType": 5126,
      "count": 11291,
      "max": [
        0.6100109815597534,
        0.19463500380516052,
        0.9601489901542664
      ],
      "min": [
        -0.6100109815597534,
        -0.19463500380516052,
        -0.7802860140800476
      ],
      "type": "VEC3"
    },
    {
      "bufferView": 2,
      "byteOffset": 135492,
      "componentType": 5126,
      "count": 11291,
      "max": [
        1.0,
        1.0,
        1.0
      ],
      "min": [
        -1.0,
        -1.0,
        -1.0
      ],
      "type": "VEC3"
    },
    {
      "bufferView": 3,
      "componentType": 5126,
      "count": 11291,
      "max": [
        1.0,
        1.0,
        1.0,
        1.0
      ],
      "min": [
        -1.0,
        -1.0,
        -1.0,
        -1.0
      ],
      "type": "VEC4"
    },
    {
      "bufferView": 1,
      "componentType": 5126,
      "count": 11291,
      "max": [
        0.9999020099639893,
        0.9979580044746399
      ],
      "min": [
        0.0005427749711088836,
        0.001333049964159727
      ],
      "type": "VEC2"
    },
    {
      "bufferView": 0,
      "componentType": 5125,
      "count": 23865,
      "type": "SCALAR"
    },
    {
      "bufferView": 2,
      "byteOffset": 270984,
      "componentType": 5126,
      "count": 3354,
      "max": [
        0.44044700264930725,
        0.13926999270915985,
        0.20440100133419037
      ],
      "min": [
        -0.44044700264930725,
        -0.18497499823570251,
        -1.0
      ],
      "type": "VEC3"
    },
    {
      "bufferView": 2,
      "byteOffset": 311232,
      "componentType": 5126,
      "count": 3354,
      "max": [
        0.9999011158943176,
        1.0,
        0.9980427622795105
      ],
      "min": [
        -0.9999011158943176,
        -0.9999989867210388,
        -0.9999818801879883
      ],
      "type": "VEC3"
    },
    {
      "bufferView": 3,
      "byteOffset": 180656,
      "componentType": 5126,
      "count": 3354,
      "max": [
        0.9999945759773254,
        0.9999988079071045,
        0.9999989867210388,
        1.0
      ],
      "min": [
        -0.9999946355819702,
        -0.9999988079071045,
        -1.0,
        -1.0
      ],
      "type": "VEC4"
    },
    {
      "bufferView": 1,
      "byteOffset": 90328,
      "componentType": 5126,
      "count": 3354,
      "max": [
        0.9906589984893799,
        0.9994999766349792
      ],
      "min": [
        0.0005000000237487257,
        0.0005000000237487257
      ],
      "type": "VEC2"
    },
    {
      "bufferView": 0,
      "byteOffset": 95460,
      "componentType": 5125,
      "count": 8106,
      "type": "SCALAR"
    },
    {
      "bufferView": 2,
      "byteOffset": 351480,
      "componentType": 5126,
      "count": 1662,
      "max": [
        0.49527299404144287,
        0.17145800590515137,
        1.0
      ],
      "min": [
        -0.49527299404144287,
        -0.17466500401496887,
        0.13029800355434418
      ],
      "type": "VEC3"
    },
    {
      "bufferView": 2,
      "byteOffset": 371424,
      "componentType": 5126,
      "count": 1662,
      "max": [
        0.9992873668670654,
        0.9999970197677612,
        1.0
      ],
      "min": [
        -0.9992873668670654,
        -1.0,
        -0.9984567761421204
      ],
      "type": "VEC3"
    },
    {
      "bufferView": 3,
      "byteOffset": 234320,
      "componentType": 5126,
      "count": 1662,
      "max": [
        1.0,
        0.999999463558197,
        1.0,
        1.0
      ],
      "min": [
        -1.0,
        -0.9999777674674988,
        -0.9999923706054688,
        -1.0
      ],
      "type": "VEC4"
    },
    {
      "bufferView": 1,
      "byteOffset": 117160,
      "componentType": 5126,
      "count": 1662,
      "max": [
        0.9931650161743164,
        0.9994999766349792
      ],
      "min": [
        0.0005000000237487257,
        0.0005000000237487257
      ],
      "type": "VEC2"
    },
    {
      "bufferView": 0,
      "byteOffset": 127884,
      "componentType": 5125,
      "count": 3582,
      "type": "SCALAR"
    }
  ],
  "asset": {
    "extras": {
      "author": "Ruslan Malovsky (https://sketchfab.com/malovsky)",
      "license": "CC-BY-4.0 (http://creativecommons.org/licenses/by/4.0/)",
      "source": "https://sketchfab.com/3d-models/spaceship-nortend-9f99de3657234c939b58610bc99333ed",
      "title": "SpaceShip \"NORTEND\""
    },
    "generator": "Sketchfab-12.68.0",
    "version": "2.0"
  },
  "bufferViews": [
    {
      "buffer": 0,
      "byteLength": 142212,
      "name": "floatBufferViews",
      "target": 34963
    },
    {
      "buffer": 0,
      "byteLength": 130456,
      "byteOffset": 142212,
      "byteStride": 8,
      "name": "floatBufferViews",
      "target": 34962
    },
    {
      "buffer": 0,
      "byteLength": 391368,
      "byteOffset": 272668,
      "byteStride": 12,
      "name": "floatBufferViews",
      "target": 34962
    },
    {
      "buffer": 0,
      "byteLength": 260912,
      "byteOffset": 664036,
      "byteStride": 16,
      "name": "floatBufferViews",
      "target": 34962
    }
  ],
  "buffers": [
    {
      "byteLength": 924948,
      "uri": "scene.bin"
    }
  ],
  "images": [
    {
      "uri": "textures/Osn2_baseColor.jpeg"
    },
    {
      "uri": "textures/Osn2_metallicRoughness.png"
    },
    {
      "uri": "textures/Osn2_emissive.jpeg"
    },
    {
      "uri": "textures/Osn2_normal.png"
    },
    {
      "uri": "textures/material_baseColor.jpeg"
    },
    {
      "uri": "textures/material_metallicRoughness.png"
    },
    {
      "uri": "textures/material_emissive.jpeg"
    },
    {
      "uri": "textures/material_normal.png"
    },
    {
      "uri": "textures/detal_baseColor.jpeg"
    },
    {
      "uri": "textures/detal_metallicRoughness.png"
    },
    {
      "uri": "textures/detal_emissive.jpeg"
    },
    {
      "uri": "textures/detal_normal.png"
    }
  ],
  "materials": [
    {
      "doubleSided": true,
      "emissiveFactor": [
        1.0,
        1.0,
        1.0
      ],
      "emissiveTexture": {
        "index": 2
      },
      "name": "Osn2",
      "normalTexture": {
        "index": 3
      },
      "occlusionTexture": {
        "index": 1
      },
      "pbrMetallicRoughness": {
        "baseColorTexture": {
          "index": 0
        },
        "metallicRoughnessTexture": {
          "index": 1
        }
      }
    },
    {
      "doubleSided": true,
      "emissiveFactor": [
        1.0,
        1.0,
        1.0
      ],
      "emissiveTexture": {
        "index": 6
      },
      "name": "material",
      "normalTexture": {
        "index": 7
      },
      "occlusionTexture": {
        "index": 5
      },
      "pbrMetallicRoughness": {
        "baseColorTexture": {
          "index": 4
        },
        "metallicRoughnessTexture": {
          "index": 5
        }
      }
    },
    {
      "doubleSided": true,
      "emissiveFactor": [
        1.0,
        1.0,
        1.0
      ],
      "emissiveTexture": {
        "index": 10
      },
      "name": "detal",
      "normalTexture": {
        "index": 11
      },
      "occlusionTexture": {
        "index": 9
      },
      "pbrMetallicRoughness": {
        "baseColorTexture": {
          "index": 8
        },
        "metallicRoughnessTexture": {
          "index": 9
        }
      }
    }
  ],
  "meshes": [
    {
      "name": "defaultMaterial",
      "primitives": [
        {
          "attributes": {
            "NORMAL": 1,
            "POSITION": 0,
            "TANGENT": 2,
            "TEXCOORD_0": 3
          },
          "indices": 4,
          "material": 2,
          "mode": 4
        }
      ]
    },
    {
      "name": "defaultMaterial",
      "primitives": [
        {
          "attributes": {
            "NORMAL": 6,
            "POSITION": 5,
            "TANGENT": 7,
            "TEXCOORD_0": 8
          },
          "indices": 9,
          "material": 1,
          "mode": 4
        }
      ]
    },
    {
      "name": "defaultMaterial",
      "primitives": [
        {
          "attributes": {
            "NORMAL": 11,
            "POSITION": 10,
            "TANGENT": 12,
            "TEXCOORD_0": 13
          },
          "indices": 14,
          "material": 0,
          "mode": 4
        }
      ]
    }
  ],
  "nodes": [
    {
      "children": [
        1
      ],
      "matrix": [
        1.0,
        0.0,
        0.0,
        0.0,
        0.0,
        2.220446049250313e-16,
        -1.0,
        0.0,
        0.0,
        1.0,
        2.220446049250313e-16,
        0.0,
        0.0,
        0.0,
        0.0,
        1.0
      ],
      "name": "Sketchfab_model"
    },
    {
      "children": [
        2,
        4,
        6
      ],
      "matrix": [
        1.0,
        0.0,
        0.0,
        0.0,
        0.0,
        -4.371139006309477e-08,
        0.999999999999999,
        0.0,
        0.0,
        -0.999999999999999,
        -4.371139006309477e-08,
        0.0,
        0.0,
        0.0,
        0.0,
        1.0
      ],
      "name": "Collada visual scene group"
    },
    {
      "children": [
        3
      ],
      "name": "Object134"
    },
    {
      "mesh": 0,
      "name": "defaultMaterial"
    },
    {
      "children": [
        5
      ],
      "name": "Object134"
    },
    {
      "mesh": 1,
      "name": "defaultMaterial"
    },
    {
      "children": [
        7
      ],
      "name": "Object134"
    },
    {
      "mesh": 2,
      "name": "defaultMaterial"
    }
  ],
  "samplers": [
    {
      "magFilter": 9729,
      "minFilter": 9987,
      "wrapS": 10497,
      "wrapT": 10497
    }
  ],
  "scene": 0,
  "scenes": [
    {
      "name": "Sketchfab_Scene",
      "nodes": [
        0
      ]
    }
  ],
  "textures": [
    {
      "sampler": 0,
      "source": 0
    },
    {
      "sampler": 0,
      "source": 1
    },
    {
      "sampler": 0,
      "source": 2
    },
    {
      "sampler": 0,
      "source": 3
    },
    {
      "sampler": 0,
      "source": 4
    },
    {
      "sampler": 0,
      "source": 5
    },
    {
      "sampler": 0,
      "source": 6
    },
    {
      "sampler": 0,
      "source": 7
    },
    {
      "sampler": 0,
      "source": 8
    },
    {
      "sampler": 0,
      "source": 9
    },
    {
      "sampler": 0,
      "source": 10
    },
    {
      "sampler": 0,
      "source": 11
    }
  ]
}
